<svg width="24" height="24" viewBox="0 0 24 24" fill="none" xmlns="http://www.w3.org/2000/svg">
<path fill-rule="evenodd" clip-rule="evenodd" d="M19 8C19 9.31859 18.6354 10.552 18.0015 11.605L12 22L5.99846 11.605C5.36459 10.552 5 9.3186 5 8C5 4.13401 8.13401 1 12 1C15.866 1 19 4.13401 19 8ZM12 13.4444C15.0069 13.4444 17.4444 11.0069 17.4444 8C17.4444 4.99312 15.0069 2.55556 12 2.55556C8.99312 2.55556 6.55556 4.99312 6.55556 8C6.55556 11.0069 8.99312 13.4444 12 13.4444Z" fill="white"/>
<path d="M12.7778 8C12.7778 8.42955 12.4296 8.77778 12 8.77778C11.5704 8.77778 11.2222 8.42955 11.2222 8C11.2222 7.57045 11.5704 7.22222 12 7.22222C12.4296 7.22222 12.7778 7.57045 12.7778 8Z" fill="white"/>
</svg>
